<svg width="25" height="70" viewBox="0 0 31 183" fill="none" xmlns="http://www.w3.org/2000/svg">
<path fill-rule="evenodd" clip-rule="evenodd" d="M9.98623 111.194C9.70563 112.705 9.43653 114.222 9.27643 115.503C6.31143 138.343 8.83333 162.82 18.0877 181.586C18.429 182.263 19.2445 182.473 19.9438 181.995C20.6431 181.517 20.9123 180.612 20.5701 179.934C11.6301 161.522 9.17373 137.701 12.069 115.431C12.151 114.715 12.2925 113.883 12.4302 113.049C13.8668 113.807 15.3398 113.973 16.7336 113.782C18.8434 113.431 20.938 112.15 22.8341 110.281C25.4791 107.659 27.6931 103.997 29.1351 100.305C30.2191 97.4609 30.7991 94.6039 30.6181 92.4929C30.5081 90.7349 29.9041 89.4309 28.8991 88.6399C27.8361 87.8119 26.2311 87.5613 23.9267 88.4029C19.9986 89.7509 16.9864 93.0619 14.6951 97.2899C13.0264 100.378 11.8023 103.9 10.8917 107.314C10.3525 106.512 9.82303 105.562 9.29933 104.462C5.53393 95.9329 6.03523 81.5114 8.77243 65.897C12.9569 42.1415 22.4197 15.591 30.5611 2.63579C30.9751 1.97699 30.8871 0.999789 30.2691 0.607489C29.6501 0.215189 28.7331 0.55549 28.3191 1.21429C19.9705 14.4986 10.2966 41.5287 5.99633 65.825C3.14673 82.1358 2.75643 97.2429 6.75433 106.073C7.78153 108.26 8.83103 110 9.98623 111.194ZM13.0726 109.772C14.2635 110.681 15.4872 110.997 16.7066 110.849C18.2334 110.589 19.7511 109.555 21.0888 108.254C23.363 106.011 25.2881 102.778 26.5371 99.5779C27.3881 97.3539 27.9331 95.0899 27.8711 93.3619C27.8211 92.4089 27.5921 91.6489 27.0761 91.1679C26.4781 90.7889 25.5931 90.8419 24.4401 91.1859C21.2253 92.3719 18.8595 95.1709 17.0685 98.4879C15.2173 101.92 13.8667 106.13 13.0726 109.772Z" fill="white"/>
<path fill-rule="evenodd" clip-rule="evenodd" d="M20.4448 179.897C16.1331 173.324 9.38435 168.276 2.36095 165.204C1.67745 164.924 0.824552 165.305 0.485252 166.011C0.0756518 166.826 0.288652 167.729 0.971252 168.009C7.57265 170.966 14.0018 175.657 18.0496 181.909C18.4889 182.495 19.3453 182.577 19.9829 182.06C20.689 181.433 20.884 180.482 20.4448 179.897Z" fill="white"/>
<path fill-rule="evenodd" clip-rule="evenodd" d="M20.7412 180.138C18.9508 172.401 22.0677 163.168 25.8323 155.574C26.1713 154.868 25.9573 153.965 25.2733 153.685C24.5907 153.406 23.7383 153.787 23.3296 154.603C19.2863 162.786 16.0545 172.866 18.0007 181.317C18.2017 182.058 18.9774 182.396 19.7168 182.098C20.4571 181.799 20.9412 180.879 20.7412 180.138Z" fill="white"/>
</svg>
